<?xml version="1.0" encoding="UTF-8"?>
<!DOCTYPE svg PUBLIC "-//W3C//DTD SVG 1.1//EN" "http://www.w3.org/Graphics/SVG/1.1/DTD/svg11.dtd">
<!-- Creator: CorelDRAW X7 -->
<svg xmlns="http://www.w3.org/2000/svg" xml:space="preserve" width="1024px" height="348px" version="1.1" style="shape-rendering:geometricPrecision; text-rendering:geometricPrecision; image-rendering:optimizeQuality; fill-rule:evenodd; clip-rule:evenodd"
viewBox="0 0 102400 34800"
 xmlns:xlink="http://www.w3.org/1999/xlink">
 <defs>
  <style type="text/css">
   <![CDATA[
    .fil3 {fill:#FEFEFE}
    .fil1 {fill:#727376}
    .fil2 {fill:#373435}
    .fil0 {fill:#373435;fill-rule:nonzero}
    .fil4 {fill:url(#id0)}
   ]]>
  </style>
  <radialGradient id="id0" gradientUnits="userSpaceOnUse" gradientTransform="matrix(1.60891 0.720962 -0.671353 1.49894 -1084 -6903)" cx="6568.71" cy="4343.51" r="5705.2" fx="6568.71" fy="4343.51">
   <stop offset="0" style="stop-opacity:0.686275; stop-color:#FEFEFE"/>
   <stop offset="0.34902" style="stop-opacity:0.156863; stop-color:#FEFEFE"/>
   <stop offset="1" style="stop-opacity:0.027451; stop-color:#FEFEFE"/>
  </radialGradient>
 </defs>
 <g id="Layer_x0020_1">
  <metadata id="CorelCorpID_0Corel-Layer"/>
  <g id="_424421008">
   <path class="fil0" d="M44158 23478l2535 -12605 209 0 4607 7949 4345 -7949 218 0 2552 12605 -2770 0 -1035 -5576 -3275 6024 -196 0 -3518 -6107 -1072 5659 -2600 0zm53276 0l-2638 0 0 -4348c0,-388 -84,-684 -247,-894 -167,-207 -400,-311 -701,-311 -434,0 -771,159 -1015,472 -244,316 -365,761 -365,1339l0 3742 -2638 0 0 -7587 2454 0 0 1270c437,-514 871,-891 1299,-1123 429,-236 897,-354 1402,-354 555,0 1015,115 1377,345 359,227 667,595 920,1098 371,-480 776,-842 1215,-1084 443,-238 920,-359 1437,-359 842,0 1463,236 1865,710 400,474 601,1207 601,2198l0 4886 -2638 0 0 -4348c0,-388 -84,-684 -247,-894 -167,-207 -400,-311 -702,-311 -439,0 -776,159 -1017,472 -241,316 -362,761 -362,1339l0 3742zm-14779 -3794c0,647 137,1167 416,1561 279,396 635,595 1066,595 434,0 788,-199 1067,-598 278,-399 416,-917 416,-1558 0,-635 -138,-1152 -416,-1554 -279,-400 -633,-601 -1067,-601 -431,0 -787,198 -1066,598 -279,399 -416,916 -416,1557zm-2690 -5c0,-1205 393,-2199 1181,-2980 790,-779 1784,-1170 2991,-1170 1213,0 2213,391 3003,1170 791,781 1187,1775 1187,2980 0,1206 -396,2204 -1187,2986 -790,784 -1790,1175 -3003,1175 -1201,0 -2195,-391 -2985,-1175 -791,-782 -1187,-1780 -1187,-2986zm-4158 3799l-2656 0 0 -7587 2471 0 50 1330c301,-531 658,-916 1063,-1158 405,-241 911,-362 1517,-362l210 0 0 2828 -276 0 -296 0c-822,0 -1377,95 -1658,282 -285,189 -425,640 -425,1359l0 3308zm-4403 -431c-466,264 -925,459 -1377,586 -451,126 -916,189 -1393,189 -1265,0 -2302,-379 -3112,-1138 -814,-755 -1219,-1715 -1219,-2879 0,-1204 437,-2219 1311,-3035 873,-816 1968,-1224 3287,-1224 483,0 957,55 1417,164 459,109 905,273 1330,494l-296 2360c-414,-253 -813,-446 -1198,-578 -385,-132 -742,-198 -1072,-198 -595,0 -1089,181 -1483,543 -394,362 -589,810 -589,1348 0,574 181,1034 546,1382 365,348 845,520 1440,520 371,0 767,-80 1187,-239 422,-160 911,-419 1465,-778l-244 2483zm-11397 -9984c0,-405 140,-747 422,-1026 279,-281 621,-422 1026,-422 411,0 753,138 1032,416 278,279 417,621 417,1032 0,405 -141,750 -423,1038 -279,284 -621,428 -1026,428 -394,0 -733,-144 -1020,-434 -285,-291 -428,-632 -428,-1032zm2793 10415l-2673 0 0 -7587 2673 -362 0 7949z"/>
   <g>
    <circle class="fil1" cx="17414" cy="17400" r="17413"/>
    <circle class="fil2" cx="17414" cy="17400" r="16906"/>
    <g>
     <g>
      <path class="fil3" d="M25284 17893c-42,636 -160,1251 -344,1837l-440 0 -1612 0 -2158 0 -204 -353 2 -1 -2 -3 -915 -1585 -887 1536c-9,18 -18,35 -28,53l-204 353 -2157 0 0 0 -204 -353 1 -1 -1 -3 -915 -1585 -887 1536c-9,18 -18,35 -28,53l-204 353 -2158 0 -1356 0 -696 0c-184,-586 -302,-1201 -344,-1837l24 0 1016 0 2419 0 1405 -2434c257,-447 827,-601 1273,-344 152,87 270,211 350,353l1383 2397 1390 -2406c256,-447 826,-601 1273,-344 152,87 270,211 349,353l1400 2425 2675 0 760 0 24 0z"/>
      <path class="fil3" d="M17413 9468c4359,0 7893,3533 7893,7892 0,140 -4,279 -11,417l-2062 0c11,-141 16,-284 16,-428 0,-3228 -2617,-5845 -5845,-5845 -3229,0 -5846,2617 -5846,5845 0,144 6,287 16,428l-2042 0c-7,-138 -11,-277 -11,-417 0,-4359 3534,-7892 7892,-7892zm-5296 10378c936,1979 2951,3349 5287,3349 2335,0 4350,-1370 5286,-3349l2216 0c-1041,3141 -4002,5407 -7493,5407 -3490,0 -6451,-2266 -7492,-5407l2196 0z"/>
     </g>
     <path class="fil3" d="M17413 7542c4671,0 8582,3248 9600,7608l-1498 0 1328 1878 1329 1877 1328 -1877 1328 -1878 -1498 0c-1055,-5622 -5989,-9876 -11917,-9876 -5927,0 -10861,4254 -11916,9876l2317 0c1018,-4360 4929,-7608 9599,-7608zm-10757 8353l1328 1877 1328 1878 -1498 0c1018,4360 4929,7608 9599,7608 4671,0 8582,-3248 9600,-7608l2317 0c-1055,5621 -5989,9875 -11917,9875 -5927,0 -10861,-4254 -11916,-9875l-1498 0 1328 -1878 1329 -1877z"/>
    </g>
    <path class="fil4" d="M17413 494c8600,0 15700,6421 16768,14730 -5361,-7413 -16408,-8704 -24824,-2847 -3977,2769 -6662,6643 -7850,10763 -646,-1792 -1000,-3725 -1000,-5740 0,-9337 7570,-16906 16906,-16906z"/>
   </g>
  </g>
 </g>
</svg>
