<?xml version="1.0" encoding="UTF-8"?>
<!DOCTYPE svg PUBLIC "-//W3C//DTD SVG 1.1//EN" "http://www.w3.org/Graphics/SVG/1.1/DTD/svg11.dtd">
<!-- Creator: CorelDRAW X7 -->
<svg xmlns="http://www.w3.org/2000/svg" xml:space="preserve" width="512px" height="174px" version="1.1" style="shape-rendering:geometricPrecision; text-rendering:geometricPrecision; image-rendering:optimizeQuality; fill-rule:evenodd; clip-rule:evenodd"
viewBox="0 0 51200 17400"
 xmlns:xlink="http://www.w3.org/1999/xlink">
 <defs>
  <style type="text/css">
   <![CDATA[
    .fil3 {fill:#FEFEFE}
    .fil1 {fill:#727376}
    .fil2 {fill:#373435}
    .fil0 {fill:#373435;fill-rule:nonzero}
    .fil4 {fill:url(#id0)}
   ]]>
  </style>
  <radialGradient id="id0" gradientUnits="userSpaceOnUse" gradientTransform="matrix(1.60892 0.720969 -0.671355 1.49896 -549 -3466)" cx="3301.55" cy="2176.9" r="5705.21" fx="3301.55" fy="2176.9">
   <stop offset="0" style="stop-opacity:0.686275; stop-color:#FEFEFE"/>
   <stop offset="0.34902" style="stop-opacity:0.156863; stop-color:#FEFEFE"/>
   <stop offset="1" style="stop-opacity:0.027451; stop-color:#FEFEFE"/>
  </radialGradient>
 </defs>
 <g id="Layer_x0020_1">
  <metadata id="CorelCorpID_0Corel-Layer"/>
  <g id="_605928816">
   <path class="fil0" d="M22082 11737l1266 -6298 105 0 2301 3972 2171 -3972 109 0 1275 6298 -1384 0 -517 -2786 -1636 3010 -98 0 -1758 -3051 -535 2827 -1299 0zm26617 0l-1318 0 0 -2173c0,-194 -42,-341 -123,-446 -84,-104 -200,-155 -351,-155 -216,0 -384,79 -507,235 -122,158 -182,381 -182,669l0 1870 -1318 0 0 -3791 1226 0 0 635c219,-257 435,-445 649,-562 214,-117 448,-176 701,-176 277,0 507,57 688,172 179,113 333,297 459,548 185,-239 388,-420 607,-541 221,-119 460,-179 718,-179 421,0 731,118 932,354 200,237 300,604 300,1099l0 2441 -1318 0 0 -2173c0,-194 -42,-341 -123,-446 -84,-104 -200,-155 -351,-155 -219,0 -387,79 -508,235 -121,158 -181,381 -181,669l0 1870zm-7384 -1896c0,323 69,583 208,780 140,198 318,297 533,297 217,0 393,-99 533,-298 139,-200 208,-458 208,-779 0,-317 -69,-575 -208,-776 -140,-200 -316,-300 -533,-300 -215,0 -393,98 -533,298 -139,200 -208,458 -208,778zm-1344 -2c0,-602 197,-1099 590,-1489 395,-389 892,-585 1495,-585 606,0 1106,196 1500,585 395,390 593,887 593,1489 0,602 -198,1101 -593,1491 -394,392 -894,588 -1500,588 -600,0 -1097,-196 -1492,-588 -395,-390 -593,-889 -593,-1491zm-2077 1898l-1327 0 0 -3791 1235 0 24 665c151,-266 329,-458 531,-579 203,-120 456,-181 759,-181l104 0 0 1413 -137 0 -148 0c-411,0 -688,48 -829,141 -142,95 -212,320 -212,679l0 1653zm-2200 -216c-232,132 -462,230 -688,293 -225,63 -458,95 -696,95 -632,0 -1150,-190 -1555,-569 -406,-377 -609,-857 -609,-1438 0,-602 219,-1109 655,-1517 437,-407 984,-611 1643,-611 241,0 478,27 707,82 230,54 453,136 665,247l-148 1178c-206,-126 -406,-222 -598,-288 -193,-66 -371,-99 -536,-99 -297,0 -544,90 -741,271 -196,181 -294,405 -294,674 0,287 90,516 273,690 182,174 422,260 719,260 185,0 383,-40 593,-119 211,-81 455,-210 732,-389l-122 1240zm-5694 -4988c0,-202 70,-373 211,-512 139,-141 310,-211 513,-211 205,0 376,69 515,208 139,139 208,310 208,515 0,203 -70,375 -211,519 -139,142 -310,214 -512,214 -197,0 -367,-72 -510,-217 -142,-145 -214,-316 -214,-516zm1396 5204l-1336 0 0 -3791 1336 -181 0 3972z"/>
   <g>
    <circle class="fil1" cx="8720" cy="8700" r="8700"/>
    <circle class="fil2" cx="8720" cy="8700" r="8447"/>
    <g>
     <g>
      <path class="fil3" d="M12652 8946c-21,318 -80,625 -172,918l-220 0 -805 0 -1078 0 -102 -176 1 -1 -1 -1 -457 -792 -443 768c-5,8 -9,17 -14,26l-102 176 -1078 0 0 0 -102 -176 1 -1 -1 -1 -457 -792 -443 768c-5,8 -9,17 -14,26l-102 176 -1078 0 -678 0 -348 0c-92,-293 -150,-600 -172,-918l13 0 507 0 1209 0 702 -1216c128,-223 413,-300 636,-172 76,44 135,106 174,177l692 1197 694 -1202c128,-223 413,-300 636,-172 76,44 135,106 174,177l700 1211 1336 0 380 0 12 0z"/>
      <path class="fil3" d="M8720 4737c2178,0 3943,1765 3943,3943 0,70 -2,139 -6,208l-1030 0c6,-70 8,-141 8,-213 0,-1613 -1307,-2921 -2920,-2921 -1613,0 -2921,1308 -2921,2921 0,72 3,143 8,213l-1020 0c-3,-69 -5,-138 -5,-208 0,-2178 1765,-3943 3943,-3943zm-2646 5185c467,989 1474,1673 2641,1673 1166,0 2173,-684 2641,-1673l1107 0c-520,1569 -1999,2701 -3743,2701 -1744,0 -3223,-1132 -3744,-2701l1098 0z"/>
     </g>
     <path class="fil3" d="M8720 3775c2333,0 4287,1623 4796,3801l-749 0 664 938 664 938 663 -938 664 -938 -749 0c-527,-2809 -2992,-4934 -5953,-4934 -2962,0 -5427,2125 -5954,4934l1158 0c508,-2178 2462,-3801 4796,-3801zm-5375 4173l664 938 663 938 -748 0c508,2179 2462,3801 4796,3801 2333,0 4287,-1622 4796,-3801l1157 0c-527,2809 -2992,4934 -5953,4934 -2962,0 -5427,-2125 -5954,-4934l-748 0 663 -938 664 -938z"/>
    </g>
    <path class="fil4" d="M8720 253c4296,0 7843,3209 8377,7360 -2678,-3704 -8198,-4349 -12402,-1422 -1987,1383 -3329,3319 -3922,5377 -323,-896 -500,-1861 -500,-2868 0,-4665 3782,-8447 8447,-8447z"/>
   </g>
  </g>
 </g>
</svg>
