<?xml version="1.0" encoding="UTF-8"?>
<!DOCTYPE svg PUBLIC "-//W3C//DTD SVG 1.1//EN" "http://www.w3.org/Graphics/SVG/1.1/DTD/svg11.dtd">
<!-- Creator: CorelDRAW X7 -->
<svg xmlns="http://www.w3.org/2000/svg" xml:space="preserve" width="512px" height="512px" version="1.1" style="shape-rendering:geometricPrecision; text-rendering:geometricPrecision; image-rendering:optimizeQuality; fill-rule:evenodd; clip-rule:evenodd"
viewBox="0 0 51200 51200"
 xmlns:xlink="http://www.w3.org/1999/xlink">
 <defs>
  <style type="text/css">
   <![CDATA[
    .fil2 {fill:#FEFEFE}
    .fil0 {fill:#727376}
    .fil1 {fill:#373435}
    .fil3 {fill:url(#id0)}
   ]]>
  </style>
  <radialGradient id="id0" gradientUnits="userSpaceOnUse" gradientTransform="matrix(1.60891 0.720962 -0.671352 1.49894 -1580 -10158)" cx="9656.6" cy="6405.37" r="5705.21" fx="9656.6" fy="6405.37">
   <stop offset="0" style="stop-opacity:0.686275; stop-color:#FEFEFE"/>
   <stop offset="0.34902" style="stop-opacity:0.156863; stop-color:#FEFEFE"/>
   <stop offset="1" style="stop-opacity:0.027451; stop-color:#FEFEFE"/>
  </radialGradient>
 </defs>
 <g id="Layer_x0020_1">
  <metadata id="CorelCorpID_0Corel-Layer"/>
  <g id="_423971728">
   <circle class="fil0" cx="25600" cy="25600" r="25600"/>
   <ellipse class="fil1" cx="25600" cy="25600" rx="24855" ry="24854"/>
   <g>
    <g>
     <path class="fil2" d="M37171 26325c-62,935 -235,1839 -506,2700l-646 0 -2371 0 -3172 0 -300 -519 2 -1 -2 -4 -1345 -2330 -1304 2258c-13,26 -27,52 -41,77l-300 519 -3172 0 0 0 -300 -519 3 -1 -3 -4 -1345 -2330 -1304 2258c-13,26 -26,52 -41,77l-300 519 -3172 0 -1993 0 -1024 0c-271,-861 -443,-1765 -506,-2700l36 0 1494 0 3555 0 2067 -3579c377,-656 1215,-883 1871,-505 223,128 397,310 514,519l2034 3524 2042 -3538c377,-656 1215,-883 1872,-505 223,128 397,310 514,519l2058 3565 3933 0 1116 0 36 0z"/>
     <path class="fil2" d="M25600 13939c6408,0 11603,5194 11603,11603 0,205 -6,409 -16,612l-3031 0c15,-207 23,-417 23,-628 0,-4746 -3847,-8594 -8594,-8594 -4746,0 -8593,3848 -8593,8594 0,211 8,421 23,628l-3002 0c-11,-203 -16,-407 -16,-612 0,-6409 5195,-11603 11603,-11603zm-7787 15257c1377,2910 4339,4923 7772,4923 3433,0 6396,-2013 7772,-4923l3258 0c-1531,4617 -5884,7948 -11015,7948 -5131,0 -9484,-3331 -11015,-7948l3228 0z"/>
    </g>
    <path class="fil2" d="M25600 11107c6866,0 12617,4775 14113,11185l-2203 0 1953 2761 1953 2760 1953 -2760 1953 -2761 -2203 0c-1551,-8264 -8804,-14518 -17519,-14518 -8715,0 -15968,6254 -17519,14518l3406 0c1496,-6410 7247,-11185 14113,-11185zm-15816 12280l1953 2760 1953 2761 -2203 0c1496,6410 7247,11185 14113,11185 6866,0 12617,-4775 14113,-11185l3406 0c-1551,8264 -8804,14518 -17519,14518 -8715,0 -15968,-6254 -17519,-14518l-2203 0 1953 -2761 1953 -2760z"/>
   </g>
   <path class="fil3" d="M25600 746c12643,0 23080,9440 24650,21655 -7881,-10898 -24122,-12796 -36494,-4185 -5847,4070 -9794,9766 -11540,15822 -951,-2634 -1471,-5476 -1471,-8438 0,-13726 11128,-24854 24855,-24854z"/>
  </g>
 </g>
</svg>
